<svg width="21" height="29" viewBox="0 0 21 29" fill="none" xmlns="http://www.w3.org/2000/svg">
                           <path
                              d="M10.5 2.99992C13.3875 2.99992 15.75 5.39992 15.75 8.33325C15.75 11.1333 12.9937 15.6666 10.5 18.8666C8.00625 15.5333 5.25 11.1333 5.25 8.33325C5.25 5.39992 7.6125 2.99992 10.5 2.99992ZM10.5 0.333252C6.16875 0.333252 2.625 3.93325 2.625 8.33325C2.625 14.3333 10.5 22.9999 10.5 22.9999C10.5 22.9999 18.375 14.1999 18.375 8.33325C18.375 3.93325 14.8313 0.333252 10.5 0.333252ZM10.5 5.66659C9.05625 5.66659 7.875 6.86659 7.875 8.33325C7.875 9.79992 9.05625 10.9999 10.5 10.9999C11.9438 10.9999 13.125 9.79992 13.125 8.33325C13.125 6.86659 11.9438 5.66659 10.5 5.66659ZM21 22.9999C21 25.9333 16.275 28.3333 10.5 28.3333C4.725 28.3333 0 25.9333 0 22.9999C0 21.2666 1.575 19.7999 4.06875 18.7333L4.85625 19.9333C3.54375 20.5999 2.625 21.3999 2.625 22.3333C2.625 24.1999 6.16875 25.6666 10.5 25.6666C14.8313 25.6666 18.375 24.1999 18.375 22.3333C18.375 21.3999 17.4563 20.5999 16.0125 19.9333L16.8 18.7333C19.425 19.7999 21 21.2666 21 22.9999Z"
                              fill=" #800000" />
                        </svg>